 <svg  version="1.0" xmlns="http://www.w3.org/2000/svg"  width="300.000000pt" height="235.000000pt" viewBox="0 0 300.000000 235.000000" transform="scale(3)" preserveAspectRatio="xMidYMid meet">  <g transform="translate(0.000000,235.000000) scale(0.100000,-0.100000)" fill="#00a3d7" stroke="none"> <path d="M1257 2019 c-21 -5 -45 -14 -53 -21 -66 -53 -105 -117 -119 -192 -6 -28 -3 -38 14 -52 24 -21 27 -49 8 -61 -16 -9 -137 -166 -137 -177 0 -5 -10 -22 -22 -39 -54 -75 -73 -210 -41 -288 15 -38 85 -119 103 -119 4 0 25 -7 46 -17 60 -25 83 -25 109 3 12 13 24 24 27 24 3 0 18 -12 34 -26 42 -37 193 -144 203 -144 5 0 14 -6 20 -14 12 -14 123 -53 156 -54 11 0 25 -2 30 -3 6 -2 30 0 55 4 61 11 123 60 158 127 40 76 46 113 22 142 -16 20 -21 21 -39 10 -33 -20 -24 0 20 43 48 47 159 202 185 260 11 22 23 43 29 47 15 11 13 210 -2 215 -7 3 -13 10 -13 17 0 17 -79 91 -118 110 -47 24 -119 24 -137 0 -8 -12 -10 -23 -4 -29 5 -5 9 -14 9 -20 0 -5 -14 6 -31 24 -16 19 -41 42 -53 50 -13 9 -49 35 -80 59 -30 23 -59 42 -62 41 -4 0 -10 4 -13 9 -9 13 -66 41 -129 63 -58 20 -113 23 -175 8z m207 -43 c66 -30 152 -85 243 -159 l62 -50 -22 -18 -22 -19 33 7 c26 4 38 1 57 -17 13 -13 22 -27 19 -32 -4 -5 8 -25 26 -43 46 -47 22 -51 -31 -5 -24 22 -48 39 -54 39 -5 0 1 -9 14 -20 13 -11 21 -22 18 -25 -3 -3 6 -16 20 -28 17 -14 23 -27 18 -35 -5 -9 -21 1 -56 35 -27 27 -49 43 -49 37 0 -6 7 -16 15 -23 8 -7 13 -16 10 -20 -2 -4 7 -18 20 -30 25 -24 32 -40 17 -40 -5 0 -28 18 -52 40 -41 38 -67 48 -40 15 10 -12 10 -15 -3 -15 -28 0 -39 27 -32 78 l6 49 -67 62 c-71 65 -154 124 -162 116 -3 -3 -3 -6 -1 -8 44 -30 151 -124 163 -142 9 -13 19 -41 22 -61 l6 -37 -100 92 c-199 185 -263 201 -366 91 -67 -71 -84 -66 -62 18 19 76 56 125 118 157 45 22 62 26 113 22 34 -3 85 -16 119 -31z m-200 -145 c-10 -11 -30 -22 -44 -26 -22 -7 -23 -6 -11 9 15 18 63 45 70 39 3 -2 -4 -12 -15 -22z m99 8 c29 -16 30 -17 149 -123 59 -53 114 -96 124 -96 10 0 14 -3 11 -7 -4 -3 5 -21 19 -40 15 -20 22 -38 17 -46 -4 -6 -8 -16 -9 -22 0 -5 -2 -16 -2 -23 -3 -24 -27 -6 -32 24 -6 33 -55 58 -69 35 -9 -14 -51 -7 -51 8 0 9 -70 -1 -89 -14 -7 -4 -24 -1 -38 6 -33 17 -57 2 -61 -40 -3 -32 -31 -45 -33 -16 -2 24 -4 29 -13 43 -5 8 -4 18 3 25 6 6 11 19 11 29 0 10 7 18 15 18 23 0 55 41 55 70 0 15 9 35 20 45 29 26 25 39 -27 90 -46 43 -46 58 0 34z m-50 -5 c4 -4 -11 -28 -33 -54 -22 -26 -40 -52 -40 -56 1 -5 9 1 19 13 10 12 21 20 24 16 3 -3 17 7 30 22 15 18 28 25 36 20 9 -5 -1 -21 -35 -56 -27 -27 -43 -49 -37 -49 6 0 16 7 23 15 7 9 15 13 18 10 3 -3 21 9 39 27 39 37 45 18 9 -26 -14 -16 -22 -35 -19 -42 2 -7 -1 -22 -7 -34 -11 -20 -17 -21 -66 -15 -53 6 -56 5 -86 -27 -48 -51 -148 -178 -148 -189 0 -5 5 -9 10 -9 6 0 10 4 10 8 0 16 112 144 143 163 18 10 46 19 62 19 l30 -1 -35 -31 c-58 -53 -179 -196 -200 -238 -38 -74 -23 -127 54 -198 53 -49 57 -62 18 -62 -115 0 -222 104 -222 216 0 97 62 220 188 377 52 64 57 68 66 48 14 -31 26 -25 19 9 -4 24 0 36 17 55 12 13 28 21 35 19 7 -3 23 8 36 25 25 31 32 35 42 25z m625 -48 c41 -21 98 -87 112 -131 35 -106 -18 -234 -184 -442 l-49 -62 -18 22 -19 22 7 -33 c4 -26 1 -38 -17 -57 -13 -13 -27 -22 -32 -19 -5 4 -25 -8 -43 -26 -51 -49 -57 -18 -6 34 44 45 58 75 16 36 -14 -13 -25 -19 -25 -14 0 5 -11 -4 -23 -20 -15 -19 -28 -26 -36 -21 -9 5 1 21 35 56 27 27 43 49 37 49 -6 0 -16 -7 -23 -15 -7 -9 -15 -13 -18 -10 -3 3 -18 -7 -33 -21 -49 -47 -53 -20 -4 34 26 29 42 52 36 52 -5 0 -15 -8 -20 -17 -9 -16 -10 -16 -11 3 0 35 24 47 78 39 l49 -6 62 67 c66 72 124 154 116 163 -3 2 -12 -5 -20 -16 -28 -40 -101 -122 -125 -141 -14 -10 -43 -22 -65 -26 l-40 -6 25 21 c16 14 21 23 13 26 -8 3 -13 22 -13 44 l0 39 -45 0 -45 0 0 -45 c0 -33 -4 -45 -15 -45 -12 0 -15 18 -15 105 0 87 3 105 15 105 11 0 15 -12 15 -45 l0 -45 45 0 45 0 0 45 c0 33 4 45 15 45 12 0 15 -18 15 -97 l1 -98 60 65 c159 171 174 246 68 345 -61 57 -60 76 5 64 25 -5 59 -15 74 -23z m-784 -41 c-4 -8 -11 -15 -16 -15 -6 0 -5 6 2 15 7 8 14 15 16 15 2 0 1 -7 -2 -15z m732 -66 c15 -30 15 -30 -5 -19 -12 6 -21 15 -21 20 0 4 -3 16 -7 26 -11 28 15 7 33 -27z m7 -101 c-4 -7 -8 -19 -9 -25 -2 -15 -102 -136 -115 -141 -5 -2 -9 21 -9 52 0 52 10 70 25 46 12 -19 30 -10 65 35 32 40 63 63 43 33z m-623 -93 l0 -45 46 0 46 0 -4 42 c-2 34 1 43 15 46 15 3 17 -7 17 -103 0 -96 -2 -106 -17 -103 -14 3 -17 12 -15 46 l4 42 -46 0 -46 0 0 -46 c0 -38 -3 -45 -17 -42 -15 3 -18 17 -21 92 -3 99 0 116 23 116 11 0 15 -11 15 -45z m251 35 c13 -7 19 -21 19 -44 0 -26 -9 -40 -40 -69 -52 -46 -51 -59 3 -55 29 2 42 -1 42 -11 0 -9 -19 -13 -63 -14 l-64 -2 6 30 c4 17 24 46 46 67 22 21 40 44 40 53 0 26 -29 29 -51 6 -25 -27 -44 -18 -28 12 20 38 51 47 90 27z m-312 -115 c0 -51 -2 -54 -20 -45 -16 9 -26 4 -64 -36 -24 -27 -47 -46 -49 -43 -8 8 25 68 55 100 15 16 25 29 23 29 -2 0 6 11 18 25 12 14 25 25 29 25 4 0 8 -25 8 -55z m231 31 c0 -3 -4 -8 -10 -11 -5 -3 -10 -1 -10 4 0 6 5 11 10 11 6 0 10 -2 10 -4z m110 -46 c0 -5 -4 -10 -10 -10 -5 0 -10 5 -10 10 0 6 5 10 10 10 6 0 10 -4 10 -10z m-220 -39 c0 -16 6 -33 13 -38 18 -15 196 -16 213 -2 10 8 14 8 14 0 0 -6 11 -11 25 -11 26 0 45 25 45 59 0 32 27 25 34 -9 6 -34 -8 -80 -25 -80 -22 0 -49 -33 -49 -59 0 -14 -9 -37 -20 -51 -28 -36 -25 -55 14 -85 52 -39 55 -60 5 -35 -48 25 -60 34 -163 132 -44 43 -88 78 -96 78 -20 1 -48 58 -44 90 1 14 3 28 3 33 1 4 8 7 16 7 10 0 15 -10 15 -29z m-80 -83 c0 -5 5 -6 11 -3 6 5 4 12 -8 21 -17 13 -17 13 3 14 35 0 46 -22 38 -79 -6 -50 -6 -52 32 -87 66 -60 184 -147 191 -141 3 4 4 8 2 10 -2 1 -37 30 -78 62 -82 66 -111 105 -111 149 0 27 4 24 91 -59 197 -186 273 -206 374 -93 59 66 79 61 61 -14 -16 -69 -27 -87 -75 -131 -109 -98 -262 -64 -484 108 l-98 76 23 19 23 20 -33 -7 c-26 -4 -38 -1 -57 17 -13 13 -22 27 -19 32 4 5 -8 25 -26 43 -46 47 -22 51 31 5 24 -22 49 -39 54 -39 6 0 -1 9 -14 20 -13 11 -21 22 -18 26 4 3 -5 14 -18 25 -23 18 -34 48 -18 48 4 0 29 -21 55 -47 26 -26 48 -42 48 -36 0 6 -7 16 -15 23 -8 7 -15 18 -15 24 0 7 -11 23 -25 36 -13 12 -22 27 -19 32 6 9 94 -59 94 -74z m-137 -89 c3 -10 1 -19 -5 -19 -5 0 -12 9 -15 20 -3 11 -9 20 -14 20 -5 0 -9 7 -9 17 0 15 2 15 19 -1 10 -10 21 -26 24 -37z m73 -86 c-7 -7 -26 7 -26 19 0 6 6 6 15 -2 9 -7 13 -15 11 -17z m584 -27 c0 -6 -66 -46 -75 -46 -13 0 18 32 40 40 23 10 35 12 35 6z"/> <path d="M1282 1968 c-27 -6 -55 -22 -77 -44 -41 -41 -48 -70 -7 -31 39 38 93 57 159 57 33 0 53 4 48 9 -16 14 -77 18 -123 9z"/> <path d="M1317 1673 c-10 -9 -9 -23 2 -23 5 0 11 7 15 15 5 15 -5 20 -17 8z"/> <path d="M956 1352 c-2 -4 -7 -23 -11 -43 -10 -53 12 -118 52 -156 45 -43 63 -42 25 1 -36 41 -55 95 -56 158 -1 50 -2 53 -10 40z"/> <path d="M1943 1723 c37 -40 57 -94 57 -158 0 -62 14 -67 23 -8 9 55 -11 120 -50 159 -40 40 -69 46 -30 7z"/> <path d="M1763 970 c-37 -34 -88 -50 -158 -50 -35 0 -46 -3 -38 -11 6 -6 36 -11 66 -11 68 -1 124 26 150 70 23 39 21 39 -20 2z"/> <path d="M784 783 c-11 -10 -26 -38 -33 -61 -14 -51 -18 -50 -27 4 -3 21 -11 45 -16 52 -24 29 -72 2 -73 -41 0 -36 -23 -30 -31 7 -5 27 -12 38 -31 42 -42 11 -52 -11 -54 -114 -1 -75 2 -97 15 -110 24 -24 70 -5 74 31 2 16 9 27 19 27 9 0 13 -6 10 -14 -10 -26 22 -57 57 -54 17 1 37 -1 43 -5 6 -4 22 2 36 13 30 24 41 25 71 5 13 -9 36 -15 52 -13 16 1 35 -1 42 -6 7 -4 22 3 36 17 24 25 25 25 42 6 12 -14 30 -20 58 -19 23 0 56 -2 73 -6 46 -9 94 2 125 29 24 21 36 56 41 115 1 12 4 22 8 22 11 0 17 -34 13 -75 -4 -53 11 -85 38 -85 44 0 51 13 49 89 -1 60 1 71 15 71 11 0 15 -6 11 -20 -10 -37 18 -104 53 -127 40 -28 69 -29 120 -4 33 16 41 17 51 5 14 -17 53 -18 67 -1 5 6 12 22 14 35 1 12 8 23 13 23 6 0 12 -11 13 -23 6 -38 21 -47 78 -47 43 0 59 5 74 22 l20 21 32 -24 c17 -13 39 -23 47 -22 9 1 30 2 48 2 22 0 36 6 47 22 l16 22 15 -21 c17 -24 64 -36 83 -21 8 7 16 7 26 -1 9 -7 35 -10 72 -7 49 5 63 11 87 36 23 26 27 39 27 89 0 53 -3 63 -31 90 -17 17 -40 32 -52 32 -12 1 -35 2 -51 3 -15 1 -39 -3 -51 -10 -19 -10 -25 -9 -29 2 -4 11 -11 11 -33 3 -15 -6 -31 -15 -35 -22 -5 -8 -12 -6 -26 6 -25 23 -78 22 -87 0 -4 -10 -7 -37 -7 -60 0 -24 -4 -40 -9 -37 -5 3 -9 9 -9 15 0 5 -9 29 -21 54 -18 37 -26 45 -49 45 -28 0 -60 -26 -60 -51 -1 -8 -7 -25 -15 -39 -14 -25 -14 -25 -15 13 0 51 -15 77 -44 77 -28 0 -43 -16 -48 -49 -1 -14 -9 -26 -16 -29 -9 -3 -13 3 -10 19 3 27 -23 59 -49 59 -9 0 -24 -7 -33 -15 -15 -14 -21 -13 -57 7 -38 21 -41 21 -89 5 -42 -14 -51 -14 -64 -2 -20 18 -147 10 -170 -11 -12 -10 -18 -10 -34 2 -25 18 -146 20 -146 2 0 -9 -3 -9 -12 0 -17 17 -48 15 -70 -5 -17 -15 -19 -15 -31 0 -16 21 -60 25 -81 8 -11 -9 -16 -30 -17 -65 l-1 -51 -16 47 c-18 49 -47 88 -67 88 -7 0 -21 -8 -31 -17z m-204 -58 l0 -45 40 0 40 0 0 45 c0 38 3 45 20 45 19 0 20 -7 20 -100 0 -95 -1 -100 -21 -100 -19 0 -21 5 -17 40 l4 40 -43 0 -43 0 0 -40 c0 -33 -3 -40 -20 -40 -19 0 -20 7 -20 100 0 93 1 100 20 100 17 0 20 -7 20 -45z m286 -55 c19 -52 34 -96 34 -97 0 -2 -8 -3 -19 -3 -10 0 -21 9 -24 20 -4 16 -14 20 -45 20 -31 0 -41 -4 -45 -20 -3 -11 -14 -20 -25 -20 -18 0 -17 6 17 100 47 132 60 132 107 0z m145 25 c19 -41 36 -74 39 -75 3 0 4 34 2 75 -3 63 -1 75 12 75 14 0 16 -16 16 -100 0 -94 -1 -100 -20 -100 -16 0 -29 18 -58 80 -20 43 -39 79 -42 80 -3 0 -4 -36 -2 -80 3 -68 1 -80 -12 -80 -14 0 -16 16 -16 100 0 98 0 100 23 100 20 0 30 -13 58 -75z m238 58 c44 -36 43 -136 -1 -168 -14 -9 -44 -15 -75 -15 l-53 0 0 100 0 100 54 0 c36 0 61 -6 75 -17z m201 2 c0 -10 -10 -15 -31 -15 l-32 0 5 -85 c4 -77 3 -85 -14 -85 -16 0 -18 9 -18 85 0 84 0 85 -25 85 -16 0 -25 6 -25 15 0 12 14 15 70 15 56 0 70 -3 70 -15z m175 -10 c20 -19 25 -34 25 -73 0 -70 -27 -102 -84 -102 -69 0 -106 59 -84 136 17 65 96 87 143 39z m95 -20 l0 -45 45 0 45 0 0 45 c0 33 4 45 15 45 12 0 15 -18 15 -100 0 -82 -3 -100 -15 -100 -11 0 -15 11 -15 40 l0 40 -45 0 -45 0 0 -40 c0 -29 -4 -40 -15 -40 -12 0 -15 18 -15 100 0 82 3 100 15 100 11 0 15 -12 15 -45z m260 33 c1 -7 16 -52 34 -100 31 -83 32 -88 14 -88 -11 0 -22 9 -25 20 -4 16 -14 20 -49 20 -37 0 -44 -3 -44 -20 0 -13 -7 -20 -20 -20 -11 0 -20 2 -20 4 0 3 14 42 30 88 17 46 33 89 35 96 2 6 14 12 25 12 11 0 20 -6 20 -12z m177 -63 c19 -41 36 -75 38 -75 1 0 0 34 -3 75 -4 71 -4 75 17 75 20 0 21 -5 21 -100 0 -97 -1 -100 -23 -100 -18 0 -30 15 -64 83 l-42 82 6 -82 c6 -80 5 -83 -16 -83 -20 0 -21 4 -21 100 l0 100 25 0 c22 0 31 -11 62 -75z m236 55 c46 -36 48 -119 5 -160 -16 -15 -35 -20 -77 -20 l-56 0 -1 100 0 100 51 0 c38 0 60 -6 78 -20z"/> <path d="M797 687 l-16 -47 30 0 c16 0 29 1 29 3 0 1 -6 22 -14 46 l-13 45 -16 -47z"/> <path d="M1150 670 l0 -70 33 0 c41 0 67 26 67 66 0 46 -25 74 -66 74 l-34 0 0 -70z m73 17 c7 -18 -11 -57 -25 -57 -9 0 -14 14 -14 39 -1 32 2 38 17 34 10 -3 20 -10 22 -16z"/> <path d="M1526 718 c-35 -49 -11 -118 39 -118 49 0 71 82 34 127 -17 20 -56 16 -73 -9z m60 -33 c8 -34 -2 -57 -23 -53 -19 3 -29 38 -19 64 9 23 35 16 42 -11z"/> <path d="M1942 691 c-16 -51 -16 -51 17 -51 l29 0 -15 42 c-8 24 -16 44 -17 46 -2 1 -8 -15 -14 -37z"/> <path d="M2300 670 l0 -70 29 0 c40 0 61 24 61 70 0 46 -21 70 -61 70 l-29 0 0 -70z m66 -14 c-9 -35 -41 -35 -44 0 -1 15 3 33 10 41 18 22 43 -8 34 -41z"/> </g> </svg> 